<svg width="60" height="60" viewBox="0 0 60 60" fill="none" xmlns="http://www.w3.org/2000/svg">
<mask id="path-1-inside-1_31_19" fill="white">
<path d="M7.52119 0L60 52.4788L52.4788 60L2.2406e-07 7.52119L7.52119 0Z"/>
<path d="M0 52.4788L52.4788 1.45028e-05L60 7.5212L7.52119 60L0 52.4788Z"/>
</mask>
<path d="M7.52119 0L60 52.4788L52.4788 60L2.2406e-07 7.52119L7.52119 0Z" fill="#EEEEEE"/>
<path d="M0 52.4788L52.4788 1.45028e-05L60 7.5212L7.52119 60L0 52.4788Z" fill="#EEEEEE"/>
<path d="M7.52119 0L42.8765 -35.3553L7.52119 -70.7107L-27.8341 -35.3553L7.52119 0ZM60 52.4788L95.3553 87.8341L130.711 52.4788L95.3553 17.1235L60 52.4788ZM52.4788 60L17.1235 95.3553L52.4788 130.711L87.8341 95.3553L52.4788 60ZM2.2406e-07 7.52119L-35.3553 -27.8342L-70.7107 7.52119L-35.3553 42.8765L2.2406e-07 7.52119ZM0 52.4788L-35.3553 17.1235L-70.7107 52.4788L-35.3553 87.8342L0 52.4788ZM52.4788 1.45028e-05L87.8341 -35.3553L52.4788 -70.7107L17.1235 -35.3553L52.4788 1.45028e-05ZM60 7.5212L95.3553 42.8765L130.711 7.5212L95.3553 -27.8341L60 7.5212ZM7.52119 60L-27.8341 95.3553L7.52119 130.711L42.8765 95.3553L7.52119 60ZM-27.8341 35.3553L24.6447 87.8341L95.3553 17.1235L42.8765 -35.3553L-27.8341 35.3553ZM24.6447 17.1235L17.1235 24.6446L87.8341 95.3553L95.3553 87.8341L24.6447 17.1235ZM87.8341 24.6446L35.3553 -27.8342L-35.3553 42.8765L17.1235 95.3553L87.8341 24.6446ZM35.3553 42.8765L42.8765 35.3553L-27.8341 -35.3553L-35.3553 -27.8342L35.3553 42.8765ZM35.3553 87.8342L87.8341 35.3554L17.1235 -35.3553L-35.3553 17.1235L35.3553 87.8342ZM17.1235 35.3554L24.6447 42.8765L95.3553 -27.8341L87.8341 -35.3553L17.1235 35.3554ZM24.6447 -27.8341L-27.8341 24.6447L42.8765 95.3553L95.3553 42.8765L24.6447 -27.8341ZM42.8765 24.6447L35.3553 17.1235L-35.3553 87.8342L-27.8341 95.3553L42.8765 24.6447Z" fill="black" mask="url(#path-1-inside-1_31_19)"/>
</svg>
